<svg xmlns="http://www.w3.org/2000/svg" xmlns:xlink="http://www.w3.org/1999/xlink" xmlns:inkscape="http://www.inkscape.org/namespaces/inkscape" version="1.1" width="810" height="810" viewBox="0 0 810 810">
<defs>
<clipPath id="clip_0">
<path transform="matrix(.24,0,0,.24,0,0)" d="M0 0H3375V3375H0Z" clip-rule="evenodd"/>
</clipPath>
<clipPath id="clip_1">
<path transform="matrix(.24,0,0,.24,0,0)" d="M0 0H3375V3375H0Z" clip-rule="evenodd"/>
</clipPath>
<clipPath id="clip_2">
<path transform="matrix(.24,0,0,.24,0,0)" d="M684.375 1604.3095H1078.125V2291.8096H684.375Z" clip-rule="evenodd"/>
</clipPath>
<clipPath id="clip_3">
<path transform="matrix(.24,0,0,.24,0,0)" d="M1087.5 1604.3095H1481.25V2291.8096H1087.5Z" clip-rule="evenodd"/>
</clipPath>
<clipPath id="clip_4">
<path transform="matrix(.24,0,0,.24,0,0)" d="M1490.625 1604.3095H1884.375V2291.8096H1490.625Z" clip-rule="evenodd"/>
</clipPath>
<clipPath id="clip_5">
<path transform="matrix(.24,0,0,.24,0,0)" d="M1893.75 1604.3095H2287.5V2291.8096H1893.75Z" clip-rule="evenodd"/>
</clipPath>
<clipPath id="clip_6">
<path transform="matrix(.24,0,0,.24,0,0)" d="M2296.875 1604.3095H2690.625V2291.8096H2296.875Z" clip-rule="evenodd"/>
</clipPath>
<clipPath id="clip_7">
<path transform="matrix(.24,0,0,.24,0,0)" d="M684.375 2302.4837H1078.125V2586.8587H684.375Z" clip-rule="evenodd"/>
</clipPath>
<clipPath id="clip_8">
<path transform="matrix(.24,0,0,.24,0,0)" d="M1087.5 2302.4837H1481.25V2586.8587H1087.5Z" clip-rule="evenodd"/>
</clipPath>
<clipPath id="clip_9">
<path transform="matrix(.24,0,0,.24,0,0)" d="M1490.625 2302.4837H1884.375V2586.8587H1490.625Z" clip-rule="evenodd"/>
</clipPath>
<clipPath id="clip_10">
<path transform="matrix(.24,0,0,.24,0,0)" d="M1893.75 2302.4837H2287.5V2586.8587H1893.75Z" clip-rule="evenodd"/>
</clipPath>
<clipPath id="clip_11">
<path transform="matrix(.24,0,0,.24,0,0)" d="M2296.875 2302.4837H2690.625V2586.8587H2296.875Z" clip-rule="evenodd"/>
</clipPath>
<clipPath id="clip_12">
<path transform="matrix(.24,0,0,.24,0,0)" d="M675 1594.9345H2700V2594.9346H675Z" clip-rule="evenodd"/>
</clipPath>
<clipPath id="clip_13">
<path transform="matrix(.24,0,0,.24,0,0)" d="M0 0H3375V3375H0Z" clip-rule="evenodd"/>
</clipPath>
</defs>
<g clip-path="url(#clip_0)">
<path transform="matrix(.75,0,0,.75,0,0)" d="M0 0H1080V1080H0Z" fill="#ffffff"/>
</g>
<g clip-path="url(#clip_1)">
<path transform="matrix(.75,0,0,.75,0,0)" d="M0 0H1080V1080H0Z" fill="#634bff"/>
</g>
<g clip-path="url(#clip_2)">
<text fill="#ffffff" xml:space="preserve" transform="matrix(.75 0 0 .75 179.25 440.03428)" font-size="28" font-family="Montserrat" font-weight="bold">0.673</text>
</g>
<g clip-path="url(#clip_3)">
<text fill="#ffffff" xml:space="preserve" transform="matrix(.75 0 0 .75 276 440.03428)" font-size="28" font-family="Montserrat" font-weight="bold">0.575</text>
</g>
<g clip-path="url(#clip_4)">
<text fill="#ffffff" xml:space="preserve" transform="matrix(.75 0 0 .75 372.75 440.03428)" font-size="28" font-family="Montserrat" font-weight="bold">105.300</text>
</g>
<g clip-path="url(#clip_5)">
<text fill="#ffffff" xml:space="preserve" transform="matrix(.75 0 0 .75 469.5 440.03428)" font-size="28" font-family="Montserrat" font-weight="bold">4.700</text>
</g>
<g clip-path="url(#clip_6)">
<text fill="#ffffff" xml:space="preserve" transform="matrix(.75 0 0 .75 566.25 440.03428)" font-size="28" font-family="Montserrat" font-weight="bold">0.861</text>
</g>
<g clip-path="url(#clip_7)">
<text fill="#ffffff" xml:space="preserve" transform="matrix(.75 0 0 .75 179.25 567.59609)" font-size="16" font-family="Montserrat" font-weight="bold"><tspan y="29" x="11.609375 21.817399 26.345414 37.76944 47.865465 58.92148 65.881488">$ Cents</tspan></text>
</g>
<g clip-path="url(#clip_8)">
<text fill="#ffffff" xml:space="preserve" transform="matrix(.75 0 0 .75 276 567.59609)" font-size="16" font-family="Montserrat" font-weight="bold"><tspan y="29" x="10.15625 23.276276 27.80429 39.228319 49.32434 60.380357 67.34036">&#x20ac; Cents</tspan></text>
</g>
<g clip-path="url(#clip_9)">
<text fill="#ffffff" xml:space="preserve" transform="matrix(.75 0 0 .75 372.75 567.59609)" font-size="16" font-family="Montserrat" font-weight="bold"><tspan y="29" x="19.34375 31.119782 35.647798 45.503816 55.59984">&#x00a5; Yen</tspan></text>
</g>
<g clip-path="url(#clip_10)">
<path transform="matrix(.012,0,0,.012,479.9297,589.34609)" d="M427 0H573V-154H767V-228H573V-293H767V-367H605L841-738H671L581-558C546-485 533-456 504-402H499C472-456 459-482 422-558L331-738H158L393-367H232V-293H427V-228H232V-154H427V0Z" fill="#ffffff"/>
<text fill-opacity="0" xml:space="preserve" transform="matrix(.75 0 0 .75 469.5 567.59609)" font-size="16" font-family="Unnamed"><tspan y="29" x="13.90625">&#xffe5;</tspan></text>
<text fill="#ffffff" xml:space="preserve" transform="matrix(.75 0 0 .75 469.5 567.59609)" font-size="16" font-family="Montserrat" font-weight="bold"><tspan y="29" x="29.90628 40.162309 51.154329 61.026353">Yuan</tspan></text>
</g>
<g clip-path="url(#clip_11)">
<text fill="#ffffff" xml:space="preserve" transform="matrix(.75 0 0 .75 566.25 567.59609)" font-size="16" font-family="Montserrat" font-weight="bold"><tspan y="29" x="6.5 16.708024 26.916047 31.444062 42.868089 52.96411 64.02013 70.98013">S$ Cents</tspan></text>
</g>
<g clip-path="url(#clip_12)">
<path transform="matrix(.75,0,0,.75,162,382.78428)" d="M1.5 3V316.94993M130.5 3V316.94993M259.5 3V316.94993M388.5 3V316.94993M517.5 3V316.94993M646.5 3V316.94993M0 1.5H648M0 224.91579H648M0 318.44993H648"/>
<path transform="matrix(.75,0,0,.75,162,382.78428)" stroke-width="3" stroke-linecap="butt" stroke-miterlimit="4" stroke-linejoin="miter" fill="none" stroke="#ffffff" d="M1.5 3V316.94993M130.5 3V316.94993M259.5 3V316.94993M388.5 3V316.94993M517.5 3V316.94993M646.5 3V316.94993M0 1.5H648M0 224.91579H648M0 318.44993H648"/>
</g>
<g clip-path="url(#clip_13)">
<text xml:space="preserve" transform="matrix(.75 0 0 .75 293.72499 98.12504)" font-size="35.99" font-family="Montserrat" font-weight="bold"><tspan y="37" x=".046875 22.285157 51.36046 75.505908 85.68945 115.41246 142.97641 154.77925 176.51375 200.83913 211.02268 238.58663 266.94224">THE DAILY AUD</tspan></text>
<text fill="#ffffff" xml:space="preserve" transform="matrix(.75 0 0 .75 283.44377 138.94493)" font-size="16" font-family="Montserrat" font-weight="bold"><tspan y="15" x="0 13.216034 23.088059 27.904068 32.720079 42.2881 46.816118 57.04013 61.85614 72.912158 82.78418 93.840198 103.29622 113.39224 117.92026 130.52829 141.56832 152.64034 162.51236 169.47237 179.56839 188.0644 192.59243 198.76844 203.29645 213.18447 220.08048 229.9525 239.40853 249.96855 254.78456 265.84059 277.0406 281.5686 293.82466 306.43269">Daily Finance Updates - Tracking AUD</tspan></text>
<text fill="#ffffff" xml:space="preserve" transform="matrix(.75 0 0 .75 283.44377 138.94493)" font-size="16" font-family="Montserrat" font-weight="bold"><tspan y="15" x="319.65626"> </tspan></text>
<text fill="#ffffff" xml:space="preserve" transform="matrix(.75 0 0 .75 356.3625 249.73424)" font-size="35.99" font-family="Montserrat" font-weight="bold"><tspan y="37" x=".015625 23.009583 53.38031 79.82875 103.9742">FOREX</tspan></text>
<text xml:space="preserve" text-anchor="middle" x="405" y="217.63416" font-size="35.99" font-family="Montserrat" font-weight="bold">January 07, 2026</text>
</g>
</svg>
